<svg width="24" height="24" viewBox="0 0 24 24" fill="none" xmlns="http://www.w3.org/2000/svg">
<path d="M18.942 5.62697H16.4197V4.41967C16.4197 1.98269 14.437 0 11.9999 0C9.56295 0 7.58026 1.98269 7.58026 4.41967V5.62697H5.05796L3.35352 24H20.6464L18.942 5.62697ZM8.60153 4.41967C8.60153 2.54571 10.1259 1.02127 11.9999 1.02127C13.874 1.02127 15.3984 2.54571 15.3984 4.41967V5.62697H8.60153V4.41967ZM5.98847 6.64824H7.58021V9.64771H6.99676V10.669H9.18488V9.64771H8.60148V6.64824H15.3983V9.64771H14.8149V10.669H17.0031V9.64771H16.4197V6.64824H18.0114L19.5263 22.9787H4.47353L5.98847 6.64824Z" fill="black"/>
</svg>
